<svg width="40" height="40" viewBox="0 0 40 40" fill="none" xmlns="http://www.w3.org/2000/svg">
  <rect width="40" height="40" rx="20" fill="#3B3A30" />
  <path d="M30.4167 19.3646V26.3542C30.4167 28.5938 28.6667 30.4167 26.5105 30.4167H22.6042V25.4167C22.6042 24.75 22.0625 24.2084 21.3959 24.2084H18.6042C17.9375 24.2084 17.4063 24.75 17.4063 25.4167V30.4167H13.4896C11.3334 30.4167 9.58337 28.5938 9.58337 26.3542V19.3646C9.58337 18.1667 10.0938 17.0313 10.9688 16.25L17.4792 10.5417C18.948 9.26044 21.0625 9.26044 22.5209 10.5417L29.0313 16.25C29.9167 17.0313 30.4167 18.1667 30.4167 19.3646Z" fill="#EAECE5" />
</svg>