<svg width="1000" height="1000" viewBox="0 0 1000 1000" fill="none" xmlns="http://www.w3.org/2000/svg">
  <rect width="1000" height="1000" rx="500" fill="#EAECE5" />
  <circle cx="500" cy="500" r="430" stroke="#3B3A30" stroke-width="10" />
  <path d="M188.428 630.5H206.978L215.553 724.65H215.903L225.003 630.5H246.003L255.103 724.65H255.453L264.028 630.5H280.653L268.228 753H244.253L235.503 670.4H235.153L226.403 753H200.853L188.428 630.5ZM290.39 630.5H309.64V680.375H330.29V630.5H349.54V753H330.29V697.875H309.64V753H290.39V630.5ZM378.752 630.5H404.827L424.777 753H405.527L402.027 728.675V729.025H380.152L376.652 753H358.802L378.752 630.5ZM399.752 712.4L391.177 651.85H390.827L382.427 712.4H399.752ZM441.134 648H421.009V630.5H480.509V648H460.384V753H441.134V648ZM514.854 754.75C505.52 754.75 498.462 752.125 493.679 746.875C488.895 741.508 486.504 733.867 486.504 723.95V716.95H504.704V725.35C504.704 733.283 508.029 737.25 514.679 737.25C517.945 737.25 520.395 736.317 522.029 734.45C523.779 732.467 524.654 729.317 524.654 725C524.654 719.867 523.487 715.375 521.154 711.525C518.82 707.558 514.504 702.833 508.204 697.35C500.27 690.35 494.729 684.05 491.579 678.45C488.429 672.733 486.854 666.317 486.854 659.2C486.854 649.517 489.304 642.05 494.204 636.8C499.104 631.433 506.22 628.75 515.554 628.75C524.77 628.75 531.712 631.433 536.379 636.8C541.162 642.05 543.554 649.633 543.554 659.55V664.625H525.354V658.325C525.354 654.125 524.537 651.092 522.904 649.225C521.27 647.242 518.879 646.25 515.729 646.25C509.312 646.25 506.104 650.158 506.104 657.975C506.104 662.408 507.27 666.55 509.604 670.4C512.054 674.25 516.429 678.917 522.729 684.4C530.779 691.4 536.32 697.758 539.354 703.475C542.387 709.192 543.904 715.9 543.904 723.6C543.904 733.633 541.395 741.333 536.379 746.7C531.479 752.067 524.304 754.75 514.854 754.75ZM582.066 754.75C572.849 754.75 565.791 752.125 560.891 746.875C556.108 741.625 553.716 734.217 553.716 724.65V658.85C553.716 649.283 556.108 641.875 560.891 636.625C565.791 631.375 572.849 628.75 582.066 628.75C591.283 628.75 598.283 631.375 603.066 636.625C607.966 641.875 610.416 649.283 610.416 658.85V671.8H592.216V657.625C592.216 650.042 589.008 646.25 582.591 646.25C576.174 646.25 572.966 650.042 572.966 657.625V726.05C572.966 733.517 576.174 737.25 582.591 737.25C589.008 737.25 592.216 733.517 592.216 726.05V707.325H610.416V724.65C610.416 734.217 607.966 741.625 603.066 746.875C598.283 752.125 591.283 754.75 582.066 754.75ZM621.933 630.5H641.183V680.375H661.833V630.5H681.083V753H661.833V697.875H641.183V753H621.933V630.5ZM710.295 630.5H736.37L756.32 753H737.07L733.57 728.675V729.025H711.695L708.195 753H690.345L710.295 630.5ZM731.295 712.4L722.72 651.85H722.37L713.97 712.4H731.295ZM772.677 648H752.552V630.5H812.052V648H791.927V753H772.677V648Z" fill="#3B3A30" />
  <path d="M469.958 477.604C452.75 477.604 436.125 473.958 420.521 466.667L367.146 474.396C363.646 474.979 360.292 473.667 357.813 471.333C355.333 468.854 354.167 465.354 354.75 462L362.917 407.896C357.084 393.896 354.167 379.312 354.167 364.583C354.167 335.125 365.688 307.125 386.688 285.979C390.917 281.604 397.917 281.75 402.146 285.979C406.375 290.208 406.521 297.208 402.146 301.437C385.229 318.5 375.896 340.812 375.896 364.583C375.896 377.271 378.667 389.958 384.208 402.062C385.375 404.542 385.521 407.312 384.646 409.937L378.521 450.771L420.667 444.646C422.854 444.354 425.042 444.646 427.083 445.667C443.417 453.833 461.646 457.042 479.292 455.292C485.125 454.562 490.667 459.083 491.25 465.062C491.833 471.042 487.458 476.437 481.479 477.021C477.833 477.458 473.896 477.604 469.958 477.604Z" fill="#3B3A30" />
  <path d="M645.979 335.417C645.979 273.146 593.917 222.396 530.042 222.396C498.688 222.396 469.521 234.354 447.937 255.792C426.208 277.229 414.25 305.375 414.25 335.417C414.25 397.688 466.167 448.438 530.042 448.438C535.875 448.438 541.417 448 546.083 447.271C546.229 447.271 546.521 447.271 546.667 447.125C558.188 445.521 569.125 442.313 579.479 437.5L632.854 445.229C636.354 445.813 639.708 444.646 642.188 442.167C644.521 439.688 645.688 436.188 645.25 432.833L637.083 378.583C642.917 364.729 645.979 350.146 645.979 335.417ZM494.313 339.063C492.854 343.583 488.479 346.792 483.375 346.792C476.958 346.792 471.708 341.688 471.708 335.417C471.708 329.146 476.958 324.042 483.375 324.042C484.688 324.042 485.854 324.188 487.021 324.625C491.688 326.083 495.042 330.458 495.042 335.417C495.042 336.729 494.75 337.896 494.313 339.063ZM530.042 346.792C523.625 346.792 518.375 341.688 518.375 335.417C518.375 329.146 523.625 324.042 530.042 324.042C536.458 324.042 541.708 329.146 541.708 335.417C541.708 341.688 536.458 346.792 530.042 346.792ZM576.708 346.792C570.292 346.792 565.042 341.688 565.042 335.417C565.042 329.146 570.292 324.042 576.708 324.042C583.125 324.042 588.375 329.146 588.375 335.417C588.375 341.688 583.125 346.792 576.708 346.792Z" fill="#3B3A30" />
</svg>