<svg width="900" height="300" viewBox="0 0 900 300" fill="none" xmlns="http://www.w3.org/2000/svg">
  <path d="M332.938 90H348.838L356.188 170.7H356.488L364.288 90H382.288L390.088 170.7H390.388L397.738 90H411.988L401.338 195H380.788L373.288 124.2H372.988L365.488 195H343.588L332.938 90ZM420.335 90H436.835V132.75H454.535V90H471.035V195H454.535V147.75H436.835V195H420.335V90ZM496.073 90H518.423L535.523 195H519.023L516.023 174.15V174.45H497.273L494.273 195H478.973L496.073 90ZM514.073 160.2L506.723 108.3H506.423L499.223 160.2H514.073ZM549.543 105H532.293V90H583.293V105H566.043V195H549.543V105ZM612.732 196.5C604.732 196.5 598.682 194.25 594.582 189.75C590.482 185.15 588.432 178.6 588.432 170.1V164.1H604.032V171.3C604.032 178.1 606.882 181.5 612.582 181.5C615.382 181.5 617.482 180.7 618.882 179.1C620.382 177.4 621.132 174.7 621.132 171C621.132 166.6 620.132 162.75 618.132 159.45C616.132 156.05 612.432 152 607.032 147.3C600.232 141.3 595.482 135.9 592.782 131.1C590.082 126.2 588.732 120.7 588.732 114.6C588.732 106.3 590.832 99.9 595.032 95.4C599.232 90.8 605.332 88.5 613.332 88.5C621.232 88.5 627.182 90.8 631.182 95.4C635.282 99.9 637.332 106.4 637.332 114.9V119.25H621.732V113.85C621.732 110.25 621.032 107.65 619.632 106.05C618.232 104.35 616.182 103.5 613.482 103.5C607.982 103.5 605.232 106.85 605.232 113.55C605.232 117.35 606.232 120.9 608.232 124.2C610.332 127.5 614.082 131.5 619.482 136.2C626.382 142.2 631.132 147.65 633.732 152.55C636.332 157.45 637.632 163.2 637.632 169.8C637.632 178.4 635.482 185 631.182 189.6C626.982 194.2 620.832 196.5 612.732 196.5ZM670.342 196.5C662.442 196.5 656.392 194.25 652.192 189.75C648.092 185.25 646.042 178.9 646.042 170.7V114.3C646.042 106.1 648.092 99.75 652.192 95.25C656.392 90.75 662.442 88.5 670.342 88.5C678.242 88.5 684.242 90.75 688.342 95.25C692.542 99.75 694.642 106.1 694.642 114.3V125.4H679.042V113.25C679.042 106.75 676.292 103.5 670.792 103.5C665.292 103.5 662.542 106.75 662.542 113.25V171.9C662.542 178.3 665.292 181.5 670.792 181.5C676.292 181.5 679.042 178.3 679.042 171.9V155.85H694.642V170.7C694.642 178.9 692.542 185.25 688.342 189.75C684.242 194.25 678.242 196.5 670.342 196.5ZM704.514 90H721.014V132.75H738.714V90H755.214V195H738.714V147.75H721.014V195H704.514V90ZM780.253 90H802.603L819.703 195H803.203L800.203 174.15V174.45H781.453L778.453 195H763.153L780.253 90ZM798.253 160.2L790.903 108.3H790.603L783.403 160.2H798.253ZM833.723 105H816.473V90H867.473V105H850.223V195H833.723V105Z" fill="#3B3A30" />
  <path d="M124.25 259.375C109.5 259.375 95.25 256.25 81.875 250L36.125 256.625C33.125 257.125 30.25 256 28.125 254C26 251.875 24.9999 248.875 25.4999 246L32.5001 199.625C27.5001 187.625 25 175.125 25 162.5C25 137.25 34.8749 113.25 52.8749 95.125C56.4999 91.375 62.4999 91.5 66.1249 95.125C69.7499 98.75 69.8749 104.75 66.1249 108.375C51.6249 123 43.6251 142.125 43.6251 162.5C43.6251 173.375 46 184.25 50.75 194.625C51.75 196.75 51.875 199.125 51.125 201.375L45.875 236.375L82 231.125C83.875 230.875 85.75 231.125 87.5 232C101.5 239 117.125 241.75 132.25 240.25C137.25 239.625 142 243.5 142.5 248.625C143 253.75 139.25 258.375 134.125 258.875C131 259.25 127.625 259.375 124.25 259.375Z" fill="#3B3A30" />
  <path d="M275.125 137.5C275.125 84.125 230.5 40.625 175.75 40.625C148.875 40.625 123.875 50.875 105.375 69.25C86.75 87.625 76.5 111.75 76.5 137.5C76.5 190.875 121 234.375 175.75 234.375C180.75 234.375 185.5 234 189.5 233.375C189.625 233.375 189.875 233.375 190 233.25C199.875 231.875 209.25 229.125 218.125 225L263.875 231.625C266.875 232.125 269.75 231.125 271.875 229C273.875 226.875 274.875 223.875 274.5 221L267.5 174.5C272.5 162.625 275.125 150.125 275.125 137.5ZM145.125 140.625C143.875 144.5 140.125 147.25 135.75 147.25C130.25 147.25 125.75 142.875 125.75 137.5C125.75 132.125 130.25 127.75 135.75 127.75C136.875 127.75 137.875 127.875 138.875 128.25C142.875 129.5 145.75 133.25 145.75 137.5C145.75 138.625 145.5 139.625 145.125 140.625ZM175.75 147.25C170.25 147.25 165.75 142.875 165.75 137.5C165.75 132.125 170.25 127.75 175.75 127.75C181.25 127.75 185.75 132.125 185.75 137.5C185.75 142.875 181.25 147.25 175.75 147.25ZM215.75 147.25C210.25 147.25 205.75 142.875 205.75 137.5C205.75 132.125 210.25 127.75 215.75 127.75C221.25 127.75 225.75 132.125 225.75 137.5C225.75 142.875 221.25 147.25 215.75 147.25Z" fill="#3B3A30" />
  <rect x="300" y="25" width="5" height="250" fill="#3B3A30" />
</svg>