<svg width="40" height="40" viewBox="0 0 40 40" fill="none" xmlns="http://www.w3.org/2000/svg">
  <rect width="40" height="40" rx="20" fill="#EAECE5" />
  <path d="M29.3646 9.64587C28.8229 9.11462 28.0416 8.93753 27.3333 9.20837L10.3437 15.3959C9.61455 15.6667 9.12496 16.3125 9.07288 17.0834C9.01038 17.8542 9.39582 18.5625 10.0729 18.9375L15.2396 21.7604C15.5521 21.9271 15.9271 21.875 16.1771 21.625L17.0312 20.7917L22.2604 15.6667C22.5729 15.375 23.0625 15.375 23.3645 15.6875C23.6666 15.9896 23.6667 16.4896 23.3542 16.7917L18.0625 21.9688L17.3541 22.6667C17.0937 22.9167 17.0416 23.3125 17.2187 23.625L20.2812 28.9792C20.6458 29.573 21.2604 29.9167 21.9375 29.9167C22.0104 29.9167 22.0729 29.9167 22.1458 29.9063C22.8958 29.8334 23.5208 29.3334 23.7812 28.625L29.8333 11.6875C30.0833 10.9688 29.9062 10.1875 29.3646 9.64587Z" fill="#3B3A30" />
</svg>