<svg width="100" height="100" viewBox="0 0 100 100" fill="none" xmlns="http://www.w3.org/2000/svg">
  <path fill-rule="evenodd" clip-rule="evenodd" d="M91.6666 50C91.6666 73.0118 73.0118 91.6666 49.9999 91.6666C26.9881 91.6666 8.33325 73.0118 8.33325 50C8.33325 26.9881 26.9881 8.33331 49.9999 8.33331C73.0118 8.33331 91.6666 26.9881 91.6666 50ZM50 29.8749C51.7259 29.8749 53.125 31.274 53.125 32.9999V52.4166C53.125 54.1425 51.7259 55.5416 50 55.5416C48.2741 55.5416 46.875 54.1425 46.875 52.4166V32.9999C46.875 31.274 48.2741 29.8749 50 29.8749ZM50 66.9998C51.7259 66.9998 53.125 65.6007 53.125 63.8748C53.125 62.1489 51.7259 60.7498 50 60.7498C48.2741 60.7498 46.875 62.1489 46.875 63.8748C46.875 65.6007 48.2741 66.9998 50 66.9998Z" fill="#EAECE5" />
</svg>